<svg id="Layer_1" data-name="Layer 1" xmlns="http://www.w3.org/2000/svg" viewBox="0 0 327.95 120.52"><defs><style>.cls-1{fill:#231f20;}</style></defs><title>ls-logo-left-align</title><path class="cls-1" d="M1800.66,864.7h27v1.65h-8v49.2h2.7q6.37,0,10.16-3.9t7.69-12h1.57l-1.42,17.55h-39.75v-1.65h4.42v-49.2h-4.42V864.7Z" transform="translate(-1798.09 -860.95)"/><path class="cls-1" d="M1849.94,913.15q-4.8-4.8-4.8-13.76t5.14-13.8q5.14-4.84,14.44-4.84t13.88,4.46q4.57,4.46,4.57,13.61,0,19.13-19,19.13Q1854.73,917.95,1849.94,913.15Zm18.83-10.73V896a51,51,0,0,0-.79-10.61q-0.79-3.34-3.64-3.34a3.77,3.77,0,0,0-2.66.94,5.76,5.76,0,0,0-1.46,3.11,57.14,57.14,0,0,0-.67,10.28v5.85q0,8.18.49,9.83a16.73,16.73,0,0,0,1,2.7,3.2,3.2,0,0,0,3.23,1.8q2.92,0,3.82-3.37Q1868.76,910.82,1868.76,902.42Z" transform="translate(-1798.09 -860.95)"/><path class="cls-1" d="M1929.14,917.2H1912l-0.83-5.47a9.82,9.82,0,0,1-3.56,4.61q-2.36,1.61-7,1.61-11.63,0-11.62-12.53V882.85h-4.2V881.5H1903v25.72q0,4.5.64,5.93a2.51,2.51,0,0,0,2.55,1.42q1.91,0,3.41-2.33a11.83,11.83,0,0,0,1.5-6.45v-23h-3.45V881.5H1925v34.35h4.13v1.35Z" transform="translate(-1798.09 -860.95)"/><path class="cls-1" d="M1956.14,917.2l-0.83-5.25q-2.55,6-10.35,6a11.88,11.88,0,0,1-10-4.65q-3.56-4.65-3.56-13.87,0-18.68,14.85-18.67,6.6,0,8.7,3.67V862.3h-4.57v-1.35h18.75v54.9h3.67v1.35h-16.65Zm-9.45-5.06q0.82,2.59,3,2.59a4.83,4.83,0,0,0,3.83-2,8.89,8.89,0,0,0,1.61-5.78V890.65a11,11,0,0,0-1.28-5.48,4.07,4.07,0,0,0-3.75-2.25q-2.47,0-3.37,3.3t-0.9,11.55v3.9Q1945.86,909.55,1946.69,912.13Z" transform="translate(-1798.09 -860.95)"/><path class="cls-1" d="M1817.73,980a10.78,10.78,0,0,0,6.35-1.94,6.66,6.66,0,0,0,2.76-5.84,6.86,6.86,0,0,0-3-6,28.42,28.42,0,0,0-8.46-3.62,57.85,57.85,0,0,1-8-2.69,21.07,21.07,0,0,1-4.7-3q-4.45-3.73-4.45-11.55a15,15,0,0,1,4.55-11q4.55-4.59,12.44-4.59a30.44,30.44,0,0,1,7.92,1.11,29.14,29.14,0,0,0,5.13,1.11,2.21,2.21,0,0,0,1.79-1.43h0.79l0.5,14.49h-1.15a44.47,44.47,0,0,0-7.21-10,11.41,11.41,0,0,0-8.18-3.76,10.36,10.36,0,0,0-6.85,2,6.75,6.75,0,0,0-2.44,5.45,5.83,5.83,0,0,0,2.9,5.23,26.22,26.22,0,0,0,7.13,3q4.23,1.15,5.56,1.58t3.3,1.18a17,17,0,0,1,3.23,1.58,22.93,22.93,0,0,1,2.65,2.08,9.88,9.88,0,0,1,2.19,2.76,16.41,16.41,0,0,1,1.94,8.17q0,7.74-4.84,12.44t-12.73,4.7a47.42,47.42,0,0,1-9.36-1.08q-5.27-1.08-5.84-1.08-1,0-1.94,2.15h-1l-0.72-17.07h1.22a39.37,39.37,0,0,0,8.07,10.9Q1812.28,980,1817.73,980Z" transform="translate(-1798.09 -860.95)"/><path class="cls-1" d="M1853,963.9h2.08v-5.52q0-6.81-.75-9.14a2.91,2.91,0,0,0-2.9-2.33,4.16,4.16,0,0,0-2.33.68,2.12,2.12,0,0,0-1,1.86,7.18,7.18,0,0,0,.43,2.4h1.79a10.21,10.21,0,0,1,.57,3.62,4.68,4.68,0,0,1-1.79,3.66,6.68,6.68,0,0,1-4.52,1.54q-6.17,0-6.17-6,0-8.82,15-8.82,8.53,0,11.8,2.9t3.26,10.65V974q0,3.73,2.08,3.73,2.44,0,2.87-7.39l1.08,0.07q-0.29,6.31-2.37,8.68t-6.81,2.37q-8.61,0-9.9-5.31a7.73,7.73,0,0,1-2.8,4,9.57,9.57,0,0,1-5.45,1.29q-10.61,0-10.61-8.68,0-5.09,4.05-7T1853,963.9Zm-2.47,13.63a1.49,1.49,0,0,0,1.51,1.08q1.11,0,2.08-1.83a10.92,10.92,0,0,0,1-5.06V965h-0.5q-4.45,0-4.45,6.53v1.15A17.72,17.72,0,0,0,1850.54,977.52Z" transform="translate(-1798.09 -860.95)"/><path class="cls-1" d="M1876.75,970.5V947.91h-3.94v-1.29h3.94v-9.25l13.34-3.3v12.55h9.32v1.29h-9.32v24.17a13.29,13.29,0,0,0,.68,4.95,2.76,2.76,0,0,0,2.83,1.58,4.65,4.65,0,0,0,3.76-2.15,12.47,12.47,0,0,0,2.12-5.88l1.22,0.14a13.92,13.92,0,0,1-3.16,7.85q-2.58,2.9-8.53,2.9t-9.11-2.37Q1876.75,976.74,1876.75,970.5Z" transform="translate(-1798.09 -860.95)"/><path class="cls-1" d="M1941.57,980.75h-16.35l-0.79-5.23a9.38,9.38,0,0,1-3.41,4.41q-2.26,1.54-6.7,1.54-11.12,0-11.12-12V947.91h-4v-1.29h17.35v24.6q0,4.3.61,5.66a2.4,2.4,0,0,0,2.44,1.36q1.83,0,3.26-2.22a11.32,11.32,0,0,0,1.43-6.17V947.91H1921v-1.29h16.64v32.84h3.94v1.29Z" transform="translate(-1798.09 -860.95)"/><path class="cls-1" d="M1964.81,948.63q-2.65,0-4.66,3.44a15.94,15.94,0,0,0-2,8.17v19.22h5.09v1.29h-22.37v-1.29h3.94V947.91h-3.94v-1.29h17.28v6.88a9.73,9.73,0,0,1,3.59-5.63,9.84,9.84,0,0,1,6-2,7.9,7.9,0,0,1,5.49,1.9,6.86,6.86,0,0,1,2.11,5.38,8.06,8.06,0,0,1-1.58,5.34,6,6,0,0,1-4.84,1.86,5.51,5.51,0,0,1-4.8-2.15q-1.54-2.15-.39-6h2.58Q1968.11,948.63,1964.81,948.63Z" transform="translate(-1798.09 -860.95)"/><path class="cls-1" d="M2000,980.75l-0.79-5q-2.44,5.74-9.9,5.74a11.36,11.36,0,0,1-9.57-4.45q-3.41-4.45-3.41-13.27,0-17.86,14.2-17.86,6.31,0,8.32,3.51V928.26h-4.37V927h17.93v52.49h3.51v1.29H2000Zm-9-4.84q0.79,2.47,2.9,2.47a4.62,4.62,0,0,0,3.66-1.86,8.5,8.5,0,0,0,1.54-5.52V955.37a10.47,10.47,0,0,0-1.22-5.23,3.89,3.89,0,0,0-3.59-2.15q-2.37,0-3.23,3.16t-0.86,11v3.73Q1990.19,973.44,1991,975.91Z" transform="translate(-1798.09 -860.95)"/><path class="cls-1" d="M2035,963.9h2.08v-5.52q0-6.81-.75-9.14a2.91,2.91,0,0,0-2.9-2.33,4.16,4.16,0,0,0-2.33.68,2.12,2.12,0,0,0-1,1.86,7.18,7.18,0,0,0,.43,2.4h1.79a10.21,10.21,0,0,1,.57,3.62,4.68,4.68,0,0,1-1.79,3.66,6.68,6.68,0,0,1-4.52,1.54q-6.17,0-6.17-6,0-8.82,15-8.82,8.53,0,11.8,2.9t3.26,10.65V974q0,3.73,2.08,3.73,2.44,0,2.87-7.39l1.08,0.07q-0.29,6.31-2.37,8.68t-6.81,2.37q-8.61,0-9.9-5.31a7.73,7.73,0,0,1-2.8,4,9.57,9.57,0,0,1-5.45,1.29q-10.61,0-10.61-8.68,0-5.09,4.05-7T2035,963.9Zm-2.47,13.63a1.49,1.49,0,0,0,1.51,1.08q1.11,0,2.08-1.83a10.92,10.92,0,0,0,1-5.06V965h-0.5q-4.45,0-4.45,6.53v1.15A17.72,17.72,0,0,0,2032.54,977.52Z" transform="translate(-1798.09 -860.95)"/><path class="cls-1" d="M2089.8,946.62v1.29l-17,31.55h0.93q6,0,9.47-3.16t5.38-10.25h1l-1.15,14.7h-30.12v-1.08l17.28-31.77h-0.79q-7.24,0-10.08,2.37t-5.06,10.11h-0.93l0.93-13.77h30.12Z" transform="translate(-1798.09 -860.95)"/><path class="cls-1" d="M2096.58,976.7q-4.63-4.77-4.63-13.27t5.2-13q5.2-4.52,13.23-4.52,16.28,0,15.63,16.35h-20.22V965q0,7,1.79,10.61t6.24,3.59q8.32,0,10.9-8.89l1.29,0.21a14.83,14.83,0,0,1-4.91,8q-3.55,2.87-10.65,2.87Q2101.2,981.47,2096.58,976.7Zm9.29-15.88h7.39V957.3a30.29,30.29,0,0,0-.68-7.92,2.69,2.69,0,0,0-2.72-2.12,3.19,3.19,0,0,0-3,2.26q-1,2.26-1,7.78v3.51Z" transform="translate(-1798.09 -860.95)"/></svg>