<svg id="Layer_1" data-name="Layer 1" xmlns="http://www.w3.org/2000/svg" viewBox="0 0 257.03 250.03"><defs><style>.cls-1{fill:#231f20;}.cls-2{font-size:196.5px;fill:#fff;font-family:Karla;font-weight:700;}</style></defs><title>ls-logo</title><path class="cls-1" d="M765.66,447.76l62.51,9.75a66,66,0,0,1,51.39,41.41l22.81,59a66,66,0,0,1-10.17,65.21l-39.7,49.26A66,66,0,0,1,791,696.21l-62.51-9.75A66,66,0,0,1,677,645.05l-22.81-59a66,66,0,0,1,10.17-65.21l39.7-49.26A66,66,0,0,1,765.66,447.76Z" transform="translate(-649.79 -446.97)"/><text class="cls-2" transform="translate(46.87 181.36)">ls</text></svg>